<svg width="20" height="20" viewBox="0 0 20 20" fill="none" xmlns="http://www.w3.org/2000/svg">
<path d="M8.125 8.75V13.75C8.125 13.9158 8.19085 14.0747 8.30806 14.1919C8.42527 14.3092 8.58424 14.375 8.75 14.375C8.91576 14.375 9.07473 14.3092 9.19194 14.1919C9.30915 14.0747 9.375 13.9158 9.375 13.75V8.75C9.375 8.58424 9.30915 8.42527 9.19194 8.30806C9.07473 8.19085 8.91576 8.125 8.75 8.125C8.58424 8.125 8.42527 8.19085 8.30806 8.30806C8.19085 8.42527 8.125 8.58424 8.125 8.75Z" fill="#7364FF"/>
<path d="M11.25 8.125C11.4158 8.125 11.5747 8.19085 11.6919 8.30806C11.8092 8.42527 11.875 8.58424 11.875 8.75V13.75C11.875 13.9158 11.8092 14.0747 11.6919 14.1919C11.5747 14.3092 11.4158 14.375 11.25 14.375C11.0842 14.375 10.9253 14.3092 10.8081 14.1919C10.6908 14.0747 10.625 13.9158 10.625 13.75V8.75C10.625 8.58424 10.6908 8.42527 10.8081 8.30806C10.9253 8.19085 11.0842 8.125 11.25 8.125Z" fill="#7364FF"/>
<path d="M12.5 5H16.25C16.4158 5 16.5747 5.06585 16.6919 5.18306C16.8092 5.30027 16.875 5.45924 16.875 5.625C16.875 5.79076 16.8092 5.94973 16.6919 6.06694C16.5747 6.18415 16.4158 6.25 16.25 6.25H15.5587L14.6187 14.72C14.5338 15.4844 14.17 16.1907 13.5969 16.7036C13.0238 17.2165 12.2816 17.5001 11.5125 17.5H8.4875C7.71837 17.5001 6.97623 17.2165 6.40311 16.7036C5.82999 16.1907 5.46616 15.4844 5.38125 14.72L4.44 6.25H3.75C3.58424 6.25 3.42527 6.18415 3.30806 6.06694C3.19085 5.94973 3.125 5.79076 3.125 5.625C3.125 5.45924 3.19085 5.30027 3.30806 5.18306C3.42527 5.06585 3.58424 5 3.75 5H7.5C7.5 4.33696 7.76339 3.70107 8.23223 3.23223C8.70107 2.76339 9.33696 2.5 10 2.5C10.663 2.5 11.2989 2.76339 11.7678 3.23223C12.2366 3.70107 12.5 4.33696 12.5 5ZM10 3.75C9.66848 3.75 9.35054 3.8817 9.11612 4.11612C8.8817 4.35054 8.75 4.66848 8.75 5H11.25C11.25 4.66848 11.1183 4.35054 10.8839 4.11612C10.6495 3.8817 10.3315 3.75 10 3.75ZM5.69875 6.25L6.62375 14.5825C6.67481 15.0411 6.89316 15.4647 7.23702 15.7724C7.58088 16.08 8.0261 16.2501 8.4875 16.25H11.5125C11.9737 16.2498 12.4186 16.0796 12.7622 15.7719C13.1058 15.4643 13.324 15.0409 13.375 14.5825L14.3025 6.25H5.7H5.69875Z" fill="#7364FF"/>
</svg>
