<svg width="21" height="24" viewBox="0 0 21 24" fill="none" xmlns="http://www.w3.org/2000/svg">
<path d="M18.8037 2.19623C15.8774 -0.732077 11.112 -0.732077 8.18877 2.19623L0.080798 10.3035C0.0279874 10.3563 2.87193e-05 10.4278 2.87193e-05 10.5024C2.87193e-05 10.577 0.0279874 10.6485 0.080798 10.7014L1.2271 11.8485C1.27949 11.9007 1.35042 11.93 1.42436 11.93C1.4983 11.93 1.56923 11.9007 1.62162 11.8485L9.7296 3.74121C10.7361 2.73402 12.075 2.18069 13.4978 2.18069C14.9206 2.18069 16.2595 2.73402 17.2629 3.74121C18.2694 4.7484 18.8223 6.08821 18.8223 7.50884C18.8223 8.93258 18.2694 10.2693 17.2629 11.2765L8.99957 19.5423L7.66067 20.8821C6.40875 22.1348 4.37399 22.1348 3.12206 20.8821C2.5163 20.2759 2.1839 19.4708 2.1839 18.6128C2.1839 17.7548 2.5163 16.9497 3.12206 16.3435L11.3201 8.143C11.5283 7.93783 11.8016 7.82281 12.0936 7.82281H12.0968C12.3888 7.82281 12.659 7.93783 12.8641 8.143C13.0722 8.35127 13.184 8.62483 13.184 8.91704C13.184 9.20614 13.0691 9.4797 12.8641 9.68486L6.16333 16.3839C6.11052 16.4368 6.08256 16.5083 6.08256 16.5829C6.08256 16.6575 6.11052 16.729 6.16333 16.7818L7.30963 17.9289C7.36203 17.9811 7.43296 18.0104 7.50689 18.0104C7.58083 18.0104 7.65176 17.9811 7.70416 17.9289L14.4018 11.2267C15.02 10.6081 15.3586 9.78745 15.3586 8.91393C15.3586 8.04041 15.0169 7.21663 14.4018 6.60113C13.125 5.32349 11.0499 5.3266 9.77309 6.60113L8.97782 7.40004L1.57813 14.8016C1.07591 15.3012 0.677801 15.8957 0.406904 16.5504C0.136007 17.2052 -0.00229158 17.9072 2.87193e-05 18.6159C2.87193e-05 20.0552 0.562306 21.4074 1.57813 22.4239C2.63124 23.4746 4.01052 24 5.38981 24C6.7691 24 8.14839 23.4746 9.19838 22.4239L18.8037 12.8183C20.2172 11.4008 21 9.51389 21 7.50884C21.0031 5.50068 20.2203 3.61376 18.8037 2.19623Z" fill="#FBFBFF"/>
</svg>
