<svg width="82" height="82" viewBox="0 0 82 82" xmlns="http://www.w3.org/2000/svg">
<path d="M41 20.6875C44.3994 20.6875 47.7224 21.6955 50.5489 23.5841C53.3753 25.4727 55.5783 28.157 56.8792 31.2976C58.1801 34.4382 58.5204 37.8941 57.8573 41.2281C57.1941 44.5622 55.5571 47.6247 53.1534 50.0284C50.7497 52.4321 47.6872 54.0691 44.3531 54.7323C41.0191 55.3954 37.5632 55.0551 34.4226 53.7542C31.282 52.4533 28.5977 50.2503 26.7091 47.4239C24.8205 44.5974 23.8125 41.2744 23.8125 37.875C23.8125 33.3166 25.6233 28.9449 28.8466 25.7216C32.0699 22.4983 36.4416 20.6875 41 20.6875ZM59.75 16H66V22.25C66 23.0788 66.3292 23.8737 66.9153 24.4597C67.5013 25.0458 68.2962 25.375 69.125 25.375C69.9538 25.375 70.7487 25.0458 71.3347 24.4597C71.9208 23.8737 72.25 23.0788 72.25 22.25V16H78.5C79.3288 16 80.1237 15.6708 80.7097 15.0847C81.2958 14.4987 81.625 13.7038 81.625 12.875C81.625 12.0462 81.2958 11.2513 80.7097 10.6653C80.1237 10.0792 79.3288 9.75001 78.5 9.75001H72.25V3.50001C72.25 2.67121 71.9208 1.87635 71.3347 1.2903C70.7487 0.704247 69.9538 0.375007 69.125 0.375007C68.2962 0.375007 67.5013 0.704247 66.9153 1.2903C66.3292 1.87635 66 2.67121 66 3.50001V9.75001H59.75C58.9212 9.75001 58.1263 10.0792 57.5403 10.6653C56.9542 11.2513 56.625 12.0462 56.625 12.875C56.625 13.7038 56.9542 14.4987 57.5403 15.0847C58.1263 15.6708 58.9212 16 59.75 16ZM77.5469 31.9984C77.1415 32.0627 76.7528 32.2061 76.4029 32.4206C76.0531 32.6351 75.7488 32.9164 75.5077 33.2484C75.2665 33.5804 75.0931 33.9567 74.9973 34.3558C74.9016 34.7549 74.8854 35.1689 74.9496 35.5742C75.233 37.3689 75.3752 39.1831 75.375 41C75.3816 49.4148 72.2886 57.5373 66.6867 63.8164C64.1782 60.1821 60.9252 57.123 57.1438 54.8422C52.7953 58.9954 47.0134 61.3129 41.0002 61.3129C34.987 61.3129 29.2051 58.9954 24.8566 54.8422C21.0751 57.1229 17.8219 60.182 15.3133 63.8164C10.909 58.866 8.03025 52.7477 7.02385 46.1986C6.01746 39.6495 6.92639 32.9491 9.64112 26.9047C12.3558 20.8604 16.7605 15.73 22.3244 12.1319C27.8883 8.53373 34.374 6.62129 41 6.62501C42.8169 6.62485 44.6311 6.76708 46.4258 7.0504C47.2444 7.18016 48.081 6.97941 48.7516 6.49233C49.4222 6.00525 49.8718 5.27173 50.0016 4.45313C50.1313 3.63453 49.9306 2.79792 49.4435 2.12733C48.9564 1.45674 48.2229 1.00711 47.4043 0.877351C41.6015 -0.0434471 35.6681 0.304359 30.0127 1.89682C24.3572 3.48928 19.1141 6.28855 14.6443 10.1019C10.1746 13.9152 6.58441 18.652 4.12106 23.986C1.6577 29.3201 0.379679 35.1246 0.375003 41C0.372818 46.6369 1.54661 52.2123 3.82137 57.3699C6.09614 62.5275 9.42184 67.1537 13.5859 70.9531C13.7406 71.127 13.9144 71.2829 14.1039 71.418C21.5204 77.994 31.089 81.6251 41.001 81.6248C50.913 81.6246 60.4815 77.9931 67.8977 71.4168C68.0858 71.2826 68.2583 71.1279 68.4121 70.9555C72.5769 67.156 75.9031 62.5294 78.1782 57.3714C80.4533 52.2134 81.6272 46.6375 81.625 41C81.6252 38.8554 81.4572 36.7141 81.1227 34.5957C81.0585 34.1903 80.9151 33.8016 80.7007 33.4516C80.4862 33.1017 80.205 32.7974 79.8729 32.5562C79.5408 32.315 79.1645 32.1416 78.7654 32.0459C78.3663 31.9502 77.9522 31.9341 77.5469 31.9984Z" fill="currentColor"/>
</svg>
