<svg width="18" height="18" viewBox="0 0 18 18" fill="none" xmlns="http://www.w3.org/2000/svg">
<path d="M2.27094 0.373823L9 7.10264L15.7014 0.401514C15.8188 0.276515 15.9603 0.17652 16.1173 0.107526C16.2743 0.0385311 16.4437 0.0019582 16.6152 0C16.9824 0 17.3346 0.14587 17.5942 0.40552C17.8539 0.66517 17.9998 1.01733 17.9998 1.38453C18.003 1.55428 17.9715 1.72289 17.9072 1.88003C17.8429 2.03717 17.7472 2.17951 17.6259 2.29832L10.8553 8.99945L17.6259 15.7698C17.8541 15.9931 17.988 16.2954 17.9998 16.6144C17.9998 16.9816 17.8539 17.3337 17.5942 17.5934C17.3346 17.853 16.9824 17.9989 16.6152 17.9989C16.4387 18.0062 16.2627 17.9768 16.0982 17.9124C15.9337 17.8481 15.7845 17.7502 15.6598 17.6251L9 10.8963L2.28478 17.6112C2.16779 17.7321 2.02803 17.8285 1.87357 17.8951C1.7191 17.9616 1.55298 17.9969 1.38481 17.9989C1.01759 17.9989 0.665419 17.853 0.40576 17.5934C0.1461 17.3337 0.000225279 16.9816 0.000225279 16.6144C-0.00300286 16.4446 0.0284922 16.276 0.0927777 16.1189C0.157063 15.9617 0.252783 15.8194 0.374062 15.7006L7.14466 8.99945L0.374062 2.22909C0.145862 2.00585 0.0120491 1.70354 0.000225279 1.38453C0.000225279 1.01733 0.1461 0.66517 0.40576 0.40552C0.665419 0.14587 1.01759 0 1.38481 0C1.71711 0.00415359 2.03556 0.138453 2.27094 0.373823Z" fill="#7364FF"/>
</svg>
