<svg width="15" height="14" viewBox="0 0 15 14" fill="none" xmlns="http://www.w3.org/2000/svg">
<path fill-rule="evenodd" clip-rule="evenodd" d="M8.80907 8.41382C7.23135 9.84575 4.67337 9.84575 3.09565 8.41382C1.51793 6.9819 1.51793 4.6603 3.09565 3.22837C4.67337 1.79645 7.23136 1.79645 8.80907 3.22837C10.3868 4.6603 10.3868 6.9819 8.80907 8.41382ZM9.29429 9.79678C7.13448 11.2962 4.03222 11.1495 2.05685 9.35663C-0.0945871 7.40401 -0.0945871 4.23819 2.05685 2.28556C4.20828 0.332943 7.69644 0.332943 9.84788 2.28556C11.8232 4.07831 11.9849 6.89373 10.3331 8.85394L14.2629 12.4206L13.2241 13.3635L9.29429 9.79678Z" fill="#9B9B9B"/>
</svg>
